<?xml version="1.0" encoding="utf-8"?>
<!-- Generator: Adobe Illustrator 18.0.0, SVG Export Plug-In . SVG Version: 6.00 Build 0)  -->
<!DOCTYPE svg PUBLIC "-//W3C//DTD SVG 1.1//EN" "http://www.w3.org/Graphics/SVG/1.1/DTD/svg11.dtd">
<svg version="1.1" id="Capa_1" xmlns="http://www.w3.org/2000/svg" xmlns:xlink="http://www.w3.org/1999/xlink" x="0px" y="0px"
	 viewBox="0 0 440 230" enable-background="new 0 0 440 230" xml:space="preserve">
<rect y="0" fill="none" width="440" height="230"/>
<g>
	<path fill="#66973B" d="M86.8,25.5c-13.5,0-24.5,11-24.5,24.5c0,13.5,21.3,37.6,21.3,55.8H90c0-18.1,21.3-43.4,21.3-55.8
		C111.3,36.5,100.4,25.5,86.8,25.5z M86.8,60.8c-5.9,0-10.8-4.8-10.8-10.8c0-5.9,4.8-10.8,10.8-10.8c5.9,0,10.8,4.8,10.8,10.8
		C97.6,56,92.8,60.8,86.8,60.8z"/>
	<path opacity="0.7" fill="#66973B" d="M116.6,38.1c1.3,3.2,2.1,6.7,2.2,10.3l13.8-6.9v94.2L111.9,146l-31.3-13.4
		c-1.3-0.6-2.6-0.8-4-0.8c-1.6,0-3.1,0.4-4.6,1.1L45.8,146l-25.1-10.8V40.4l21.4,9.2c1.3,0.6,2.6,0.8,4,0.8c1.6,0,3.1-0.4,4.6-1.1
		l4.2-2.1c0.4-4.9,2-9.5,4.4-13.6l-13.1,6.5L10.5,25v117l35.6,15.3L76.7,142l35.6,15.3l30.5-15.3V25L116.6,38.1z"/>
	<g>
		<path fill="#9EC6E8" d="M76.7,142l30.4,13c-1.4-34-17.8-39.6-30.4-39.6c-2.8,0-4.9,3.2-10.2,0.3c-8.9-5-6-18.7-20.3-19.5
			C33.4,83.5,15.6,86,15.6,86h-5.1v56l35.6,15.3L76.7,142z"/>
	</g>
	<g>
		<path fill="#183246" d="M230.9,148.8c-9.1,0-17.4-1.5-25-4.5c-7.5-3-14-7.2-19.4-12.5c-5.4-5.3-9.6-11.7-12.6-19
			c-3-7.3-4.5-15.4-4.5-24v-0.3c0-8.3,1.5-16.2,4.6-23.5c3.1-7.3,7.3-13.7,12.8-19.2c5.5-5.5,11.9-9.9,19.4-13
			c7.5-3.2,15.6-4.8,24.5-4.8c5.2,0,10,0.4,14.3,1.1c4.3,0.7,8.3,1.8,11.9,3.1c3.7,1.3,7.1,3,10.4,5c3.2,2,6.3,4.3,9.3,6.8
			l-16.2,19.5c-2.2-1.9-4.5-3.6-6.7-5c-2.2-1.4-4.5-2.7-6.9-3.7c-2.4-1-5-1.8-7.8-2.3c-2.8-0.6-5.8-0.8-9.2-0.8c-4.7,0-9,1-13.1,2.9
			c-4.1,2-7.6,4.6-10.7,7.9c-3.1,3.3-5.5,7.1-7.2,11.5c-1.7,4.4-2.6,9.1-2.6,14.1v0.3c0,5.4,0.9,10.3,2.6,14.8
			c1.7,4.5,4.2,8.5,7.3,11.8c3.2,3.3,6.9,5.9,11.2,7.8c4.3,1.8,9,2.8,14.3,2.8c9.6,0,17.6-2.4,24.2-7.1v-16.8h-25.9V79.5h50.8v50.8
			c-6,5.1-13.2,9.5-21.5,13.1C251.1,147,241.6,148.8,230.9,148.8z"/>
		<path fill="#183246" d="M298.4,29.9h25.7v116.9h-25.7V29.9z"/>
		<path fill="#183246" d="M386.7,148.4c-8.9,0-17.6-1.5-26.2-4.6c-8.6-3.1-16.4-7.8-23.4-14.1l15.2-18.2c5.3,4.3,10.8,7.8,16.4,10.4
			c5.6,2.6,11.8,3.8,18.5,3.8c5.3,0,9.5-1,12.4-2.9c2.9-1.9,4.4-4.6,4.4-8.1v-0.3c0-1.7-0.3-3.1-0.9-4.4c-0.6-1.3-1.8-2.5-3.5-3.6
			c-1.7-1.1-4.1-2.2-7.2-3.3c-3.1-1.1-7.1-2.3-12-3.5c-5.9-1.4-11.3-3.1-16.1-4.8c-4.8-1.8-8.9-4-12.2-6.6c-3.3-2.6-5.9-5.9-7.8-9.8
			c-1.8-3.9-2.8-8.7-2.8-14.5v-0.3c0-5.3,1-10.2,3-14.4c2-4.3,4.8-8,8.4-11.1c3.6-3.1,7.9-5.5,12.9-7.2c5-1.7,10.5-2.5,16.5-2.5
			c8.6,0,16.4,1.3,23.6,3.8c7.2,2.6,13.8,6.2,19.8,11l-13.4,19.4c-5.2-3.6-10.4-6.4-15.4-8.4c-5-2.1-10-3.1-15-3.1
			c-5,0-8.8,1-11.3,2.9c-2.5,1.9-3.8,4.4-3.8,7.3v0.3c0,1.9,0.4,3.5,1.1,4.9c0.7,1.4,2,2.6,3.9,3.8c1.9,1.1,4.5,2.2,7.8,3.2
			c3.3,1,7.4,2.2,12.5,3.5c5.9,1.6,11.2,3.3,15.8,5.3c4.6,1.9,8.5,4.3,11.7,7c3.2,2.7,5.6,5.9,7.2,9.6c1.6,3.7,2.4,8.1,2.4,13.2v0.3
			c0,5.8-1.1,10.9-3.2,15.4c-2.1,4.5-5,8.3-8.8,11.4c-3.8,3.1-8.2,5.4-13.5,7C398.8,147.6,393.1,148.4,386.7,148.4z"/>
	</g>
	<g>
		<path fill="#183246" d="M16.2,175.5h5.4l8.8,13.7l8.8-13.7h5.4v29h-5.1v-20.8l-9.2,13.7h-0.2l-9.1-13.6v20.7h-5.1V175.5z"/>
		<path fill="#183246" d="M60.4,175.3h4.7l12.8,29.2h-5.4l-2.9-7H55.8l-3,7h-5.2L60.4,175.3z M67.7,193l-5-11.6l-5,11.6H67.7z"/>
		<path fill="#183246" d="M80.8,175.5h11.4c1.7,0,3.2,0.2,4.6,0.7c1.4,0.5,2.5,1.1,3.5,2c1,0.9,1.7,1.9,2.2,3.1
			c0.5,1.2,0.8,2.5,0.8,4v0.1c0,1.6-0.3,3.1-0.9,4.3c-0.6,1.2-1.4,2.3-2.5,3.1c-1.1,0.8-2.3,1.5-3.7,1.9c-1.4,0.4-2.9,0.6-4.5,0.6
			h-5.8v9.3h-5.1V175.5z M91.8,190.6c1.9,0,3.5-0.5,4.6-1.5s1.7-2.2,1.7-3.7v-0.1c0-1.7-0.6-3-1.7-3.9c-1.1-0.9-2.7-1.3-4.6-1.3
			h-5.9v10.5H91.8z"/>
		<path fill="#183246" d="M116.7,175.3h4.7l12.8,29.2h-5.4l-2.9-7h-13.7l-3,7h-5.2L116.7,175.3z M124,193l-5-11.6l-5,11.6H124z"/>
		<path fill="#183246" d="M147.3,204.9c-2.2,0-4.4-0.4-6.4-1.1c-2-0.8-3.9-1.9-5.7-3.5l3.1-3.6c1.4,1.2,2.8,2.1,4.3,2.8
			c1.4,0.7,3.1,1,4.9,1c1.6,0,2.8-0.3,3.8-1c0.9-0.7,1.4-1.5,1.4-2.7v-0.1c0-0.5-0.1-1-0.3-1.4c-0.2-0.4-0.5-0.8-1-1.1
			c-0.5-0.4-1.2-0.7-2-1c-0.8-0.3-1.9-0.6-3.3-0.9c-1.6-0.4-2.9-0.8-4.1-1.2c-1.2-0.5-2.2-1-3-1.7c-0.8-0.7-1.4-1.4-1.9-2.4
			c-0.4-0.9-0.6-2.1-0.6-3.4v-0.1c0-1.2,0.2-2.4,0.7-3.4c0.5-1,1.2-1.9,2-2.7c0.9-0.7,1.9-1.3,3.1-1.7c1.2-0.4,2.5-0.6,4-0.6
			c2.1,0,4,0.3,5.7,0.9c1.7,0.6,3.3,1.5,4.8,2.7l-2.7,3.9c-1.3-1-2.6-1.7-3.9-2.2c-1.3-0.5-2.6-0.8-3.9-0.8c-1.5,0-2.7,0.3-3.5,1
			c-0.8,0.7-1.2,1.5-1.2,2.4v0.1c0,0.6,0.1,1,0.3,1.5c0.2,0.4,0.5,0.8,1.1,1.2c0.5,0.3,1.2,0.7,2.1,1c0.9,0.3,2,0.6,3.4,1
			c1.5,0.4,2.9,0.8,4.1,1.3c1.2,0.5,2.2,1,2.9,1.7c0.8,0.7,1.4,1.5,1.8,2.4s0.6,1.9,0.6,3.1v0.1c0,1.4-0.3,2.6-0.8,3.6
			c-0.5,1.1-1.2,2-2.1,2.7c-0.9,0.7-2,1.3-3.3,1.7C150.2,204.7,148.8,204.9,147.3,204.9z"/>
		<path fill="#183246" d="M171.9,175.5h12.9c1.8,0,3.4,0.3,4.9,0.8c1.4,0.5,2.6,1.2,3.5,2.1c0.8,0.8,1.4,1.7,1.8,2.8
			c0.4,1.1,0.6,2.2,0.6,3.5v0.1c0,1.2-0.2,2.3-0.5,3.2c-0.3,1-0.8,1.8-1.4,2.5c-0.6,0.7-1.3,1.4-2.2,1.9c-0.8,0.5-1.8,0.9-2.8,1.2
			l7.8,11h-6l-7.2-10.1h-0.1H177v10.1h-5.1V175.5z M184.4,189.9c1.8,0,3.3-0.4,4.4-1.3c1.1-0.9,1.6-2.1,1.6-3.6v-0.1
			c0-1.6-0.5-2.8-1.6-3.6s-2.5-1.2-4.4-1.2H177v9.8H184.4z"/>
		<path fill="#183246" d="M200.1,175.5h5.1v29h-5.1V175.5z"/>
		<path fill="#183246" d="M224.7,205c-2.2,0-4.3-0.4-6.1-1.2c-1.9-0.8-3.4-1.9-4.8-3.2c-1.3-1.4-2.4-2.9-3.1-4.7
			c-0.7-1.8-1.1-3.7-1.1-5.8V190c0-2,0.4-4,1.1-5.8c0.7-1.8,1.8-3.4,3.2-4.8c1.4-1.4,3-2.5,4.8-3.3c1.9-0.8,3.9-1.2,6.1-1.2
			c2.2,0,4.3,0.4,6.1,1.2c1.9,0.8,3.4,1.9,4.8,3.2c1.3,1.4,2.4,2.9,3.1,4.7c0.7,1.8,1.1,3.7,1.1,5.8v0.1c0,2-0.4,4-1.1,5.8
			c-0.7,1.8-1.8,3.4-3.2,4.8c-1.4,1.4-3,2.5-4.8,3.3C229,204.6,227,205,224.7,205z M224.8,200.3c1.4,0,2.7-0.3,3.9-0.8
			c1.2-0.5,2.2-1.3,3.1-2.2c0.9-0.9,1.5-2,2-3.3c0.5-1.2,0.7-2.6,0.7-4V190c0-1.4-0.2-2.7-0.7-4c-0.5-1.3-1.2-2.3-2-3.3
			c-0.9-0.9-1.9-1.7-3.1-2.2c-1.2-0.6-2.5-0.8-4-0.8c-1.4,0-2.7,0.3-3.9,0.8c-1.2,0.5-2.2,1.3-3.1,2.2c-0.9,0.9-1.5,2-2,3.3
			c-0.5,1.2-0.7,2.6-0.7,4v0.1c0,1.4,0.2,2.7,0.7,4c0.5,1.3,1.2,2.3,2,3.3c0.9,0.9,1.9,1.7,3.1,2.2C222,200,223.4,200.3,224.8,200.3
			z"/>
		<path fill="#183246" d="M267.9,205c-2.1,0-4.1-0.4-5.9-1.2c-1.8-0.8-3.4-1.8-4.7-3.2c-1.3-1.3-2.4-2.9-3.1-4.7
			c-0.8-1.8-1.1-3.8-1.1-5.8V190c0-2.1,0.4-4,1.1-5.8c0.7-1.8,1.8-3.4,3.1-4.8c1.3-1.4,2.9-2.4,4.7-3.2c1.8-0.8,3.8-1.2,6.1-1.2
			c1.3,0,2.5,0.1,3.6,0.3c1.1,0.2,2.1,0.5,3,0.9c0.9,0.4,1.8,0.9,2.5,1.4c0.8,0.6,1.5,1.2,2.2,1.8l-3.3,3.8
			c-1.2-1.1-2.4-1.9-3.7-2.6c-1.3-0.7-2.8-1-4.4-1c-1.4,0-2.7,0.3-3.8,0.8c-1.2,0.5-2.2,1.3-3,2.2c-0.9,0.9-1.5,2-2,3.3
			s-0.7,2.6-0.7,4v0.1c0,1.4,0.2,2.7,0.7,4c0.5,1.3,1.1,2.4,2,3.3c0.9,0.9,1.9,1.7,3,2.2c1.2,0.5,2.5,0.8,3.8,0.8
			c1.8,0,3.3-0.3,4.6-1c1.3-0.7,2.5-1.6,3.8-2.8l3.3,3.3c-0.7,0.8-1.5,1.5-2.3,2.1c-0.8,0.6-1.7,1.2-2.6,1.6c-0.9,0.5-2,0.8-3.1,1
			S269.3,205,267.9,205z"/>
		<path fill="#183246" d="M294.8,205c-1.9,0-3.6-0.3-5.1-0.8c-1.5-0.5-2.8-1.3-3.9-2.4s-1.9-2.4-2.5-4c-0.6-1.6-0.9-3.4-0.9-5.5
			v-16.7h5.1V192c0,2.7,0.7,4.8,2,6.2c1.3,1.4,3.1,2.1,5.4,2.1c2.3,0,4.1-0.7,5.4-2c1.3-1.4,2-3.4,2-6.1v-16.7h5.1v16.5
			c0,2.2-0.3,4-0.9,5.7c-0.6,1.6-1.4,3-2.5,4.1c-1.1,1.1-2.4,1.9-3.9,2.4C298.5,204.7,296.7,205,294.8,205z"/>
		<path fill="#183246" d="M322.5,175.3h4.7l12.8,29.2h-5.4l-2.9-7H318l-3,7h-5.2L322.5,175.3z M329.8,193l-5-11.6l-5,11.6H329.8z"/>
		<path fill="#183246" d="M342.9,175.5h12.9c1.8,0,3.4,0.3,4.9,0.8c1.4,0.5,2.6,1.2,3.5,2.1c0.8,0.8,1.4,1.7,1.8,2.8
			c0.4,1.1,0.6,2.2,0.6,3.5v0.1c0,1.2-0.2,2.3-0.5,3.2c-0.3,1-0.8,1.8-1.4,2.5c-0.6,0.7-1.3,1.4-2.2,1.9c-0.8,0.5-1.8,0.9-2.8,1.2
			l7.8,11h-6l-7.2-10.1h-0.1H348v10.1h-5.1V175.5z M355.5,189.9c1.8,0,3.3-0.4,4.4-1.3c1.1-0.9,1.6-2.1,1.6-3.6v-0.1
			c0-1.6-0.5-2.8-1.6-3.6s-2.5-1.2-4.4-1.2H348v9.8H355.5z"/>
		<path fill="#183246" d="M378,180.2h-9.2v-4.7h23.5v4.7h-9.2v24.3H378V180.2z"/>
		<path fill="#183246" d="M409.5,205c-2.2,0-4.3-0.4-6.1-1.2c-1.9-0.8-3.4-1.9-4.8-3.2c-1.3-1.4-2.4-2.9-3.1-4.7
			c-0.7-1.8-1.1-3.7-1.1-5.8V190c0-2,0.4-4,1.1-5.8c0.7-1.8,1.8-3.4,3.2-4.8c1.4-1.4,3-2.5,4.8-3.3c1.9-0.8,3.9-1.2,6.1-1.2
			c2.2,0,4.3,0.4,6.1,1.2c1.9,0.8,3.4,1.9,4.8,3.2c1.3,1.4,2.4,2.9,3.1,4.7c0.7,1.8,1.1,3.7,1.1,5.8v0.1c0,2-0.4,4-1.1,5.8
			c-0.7,1.8-1.8,3.4-3.2,4.8c-1.4,1.4-3,2.5-4.8,3.3C413.7,204.6,411.7,205,409.5,205z M409.5,200.3c1.4,0,2.7-0.3,3.9-0.8
			c1.2-0.5,2.2-1.3,3.1-2.2c0.9-0.9,1.5-2,2-3.3c0.5-1.2,0.7-2.6,0.7-4V190c0-1.4-0.2-2.7-0.7-4c-0.5-1.3-1.2-2.3-2-3.3
			c-0.9-0.9-1.9-1.7-3.1-2.2c-1.2-0.6-2.5-0.8-4-0.8c-1.4,0-2.7,0.3-3.9,0.8c-1.2,0.5-2.2,1.3-3.1,2.2c-0.9,0.9-1.5,2-2,3.3
			s-0.7,2.6-0.7,4v0.1c0,1.4,0.2,2.7,0.7,4c0.5,1.3,1.2,2.3,2,3.3c0.9,0.9,1.9,1.7,3.1,2.2C406.8,200,408.1,200.3,409.5,200.3z"/>
	</g>
</g>
</svg>
