<?xml version="1.0" encoding="utf-8"?>
<!-- Generator: Adobe Illustrator 19.0.0, SVG Export Plug-In . SVG Version: 6.00 Build 0)  -->
<svg version="1.1" id="Capa_1" xmlns="http://www.w3.org/2000/svg" xmlns:xlink="http://www.w3.org/1999/xlink" x="0px" y="0px"
	 viewBox="-147 380.9 300 80" style="enable-background:new -147 380.9 300 80;" xml:space="preserve">
<style type="text/css">
	.st0{display:none;}
	.st1{display:inline;}
	.st2{fill:#646363;}
	.st3{fill:#E52329;}
	.st4{fill:#E49B00;}
	.st5{fill:#FAEBCC;}
	.st6{display:inline;fill:#E52329;}
	.st7{opacity:0.7;fill:#A9C5E6;enable-background:new    ;}
	.st8{fill:#A9C5E6;}
	.st9{fill:#FFFFFF;}
</style>
<g id="Capa_1_1_" class="st0">
	<g class="st1">
		<g id="XMLID_6923_">
			<g id="XMLID_167_">
				<path id="XMLID_184_" class="st2" d="M-419.7,1211.9v-2.4c-1,1.4-2.8,2.7-5.6,2.7c-2.7,0-5.7-1.5-5.7-4.5v-0.1
					c0-3,2.6-4.6,6.4-4.6c2,0,3.4,0.3,4.8,0.6v-0.6c0-2.9-1.8-4.4-4.8-4.4c-1.8,0-3.2,0.5-4.6,1.1l-0.5-1.2c1.6-0.7,3.2-1.2,5.2-1.2
					c3.8,0,6.1,1.9,6.1,5.6v8.9h-1.3V1211.9L-419.7,1211.9z M-419.6,1204.9c-1.3-0.3-2.9-0.6-5-0.6c-3.1,0-4.8,1.3-4.8,3.3v0.1
					c0,2.1,2,3.3,4.2,3.3c3,0,5.5-1.8,5.5-4.4L-419.6,1204.9L-419.6,1204.9z"/>
				<path id="XMLID_182_" class="st2" d="M-408.2,1212h-1.2l-6.6-14.4h1.6l5.5,12.7l5.6-12.7h1.6L-408.2,1212z"/>
				<path id="XMLID_179_" class="st2" d="M-393.2,1210.9c2.3,0,3.8-1,5-2.2l1,0.8c-1.5,1.6-3.2,2.7-6.1,2.7c-3.8,0-7.2-3-7.2-7.4
					v-0.1c0-4.1,3-7.4,6.9-7.4c4.1,0,6.7,3.2,6.7,7.5v0.1c0,0.2,0,0.3,0,0.5h-12C-398.7,1208.9-396.1,1210.9-393.2,1210.9z
					 M-388.3,1204.1c-0.2-2.9-1.9-5.5-5.2-5.5c-2.9,0-5.1,2.4-5.4,5.5H-388.3z"/>
				<path id="XMLID_177_" class="st2" d="M-372.2,1211.9v-8.5c0-2.9-1.7-4.9-4.6-4.9c-2.9,0-5.1,2.1-5.1,5.1v8.3h-1.4v-14.3h1.4v2.7
					c1-1.7,2.6-3,5.3-3c3.7,0,5.9,2.5,5.9,5.9v8.7C-370.7,1211.9-372.2,1211.9-372.2,1211.9z"/>
				<path id="XMLID_175_" class="st2" d="M-361.6,1212.1c-2.3,0-4.1-1.2-4.1-3.9v-9.4h-2.2v-1.3h2.1v-4.6h1.4v4.6h5.1v1.3h-5.1v9.2
					c0,2,1.2,2.8,2.9,2.8c0.7,0,1.3-0.1,2.2-0.5v1.3C-360,1212-360.7,1212.1-361.6,1212.1z"/>
				<path id="XMLID_173_" class="st2" d="M-344.9,1211.9v-2.7c-1,1.7-2.6,3-5.3,3c-3.7,0-5.9-2.5-5.9-5.9v-8.7h1.4v8.5
					c0,2.9,1.7,4.9,4.6,4.9c2.9,0,5.1-2.1,5.1-5.1v-8.3h1.4v14.3C-343.6,1211.9-344.9,1211.9-344.9,1211.9z"/>
				<path id="XMLID_171_" class="st2" d="M-331.1,1198.9c-3.4,0-6.3,2.5-6.3,7.1v5.9h-1.5v-14.3h1.4v4.1c1.1-2.5,3.6-4.4,6.5-4.3
					L-331.1,1198.9C-331,1198.9-331.1,1198.9-331.1,1198.9z"/>
				<path id="XMLID_168_" class="st2" d="M-318.8,1211.9v-2.4c-1,1.4-2.8,2.7-5.6,2.7c-2.7,0-5.7-1.5-5.7-4.5v-0.1
					c0-3,2.6-4.6,6.4-4.6c2,0,3.4,0.3,4.8,0.6v-0.6c0-2.9-1.8-4.4-4.8-4.4c-1.8,0-3.2,0.5-4.6,1.1l-0.5-1.2c1.6-0.7,3.2-1.2,5.2-1.2
					c3.8,0,6.1,1.9,6.1,5.6v8.9h-1.3C-318.8,1211.8-318.8,1211.9-318.8,1211.9z M-318.8,1204.9c-1.2-0.3-2.9-0.6-5-0.6
					c-3.1,0-4.8,1.3-4.8,3.3v0.1c0,2.1,2,3.3,4.2,3.3c3,0,5.5-1.8,5.5-4.4L-318.8,1204.9L-318.8,1204.9L-318.8,1204.9z"/>
			</g>
		</g>
		<g id="XMLID_6905_">
			<g id="XMLID_135_">
				<path id="XMLID_151_" class="st2" d="M-220.6,1212.2c-2.1,0-4.4-0.8-6-2.1l0.8-1.1c1.6,1.2,3.4,1.9,5.2,1.9c2,0,3.5-1.1,3.5-2.7
					v-0.1c0-1.7-1.8-2.3-3.9-2.9c-2.4-0.7-5-1.4-5-3.9l0,0c0-2.3,2-3.9,4.8-3.9c1.7,0,3.7,0.6,5.2,1.6l-0.7,1.1
					c-1.3-0.9-3-1.4-4.5-1.4c-2,0-3.3,1.1-3.3,2.5v0.1c0,1.6,2,2.2,4.1,2.8c2.4,0.6,4.8,1.5,4.8,4v0.1
					C-215.5,1210.6-217.7,1212.2-220.6,1212.2z"/>
				<path id="XMLID_148_" class="st2" d="M-205.5,1211c2.3,0,3.8-1,5-2.2l1,0.8c-1.5,1.6-3.2,2.7-6.1,2.7c-3.8,0-7.2-3-7.2-7.4v-0.1
					c0-4.1,3-7.4,6.9-7.4c4.1,0,6.7,3.2,6.7,7.5v0.1c0,0.2,0,0.3,0,0.5h-12.1C-211,1208.9-208.4,1211-205.5,1211z M-200.6,1204.1
					c-0.2-2.9-1.9-5.5-5.2-5.5c-2.9,0-5.1,2.4-5.4,5.5H-200.6z"/>
				<path id="XMLID_146_" class="st2" d="M-188,1199c-3.4,0-6.3,2.5-6.3,7.1v5.9h-1.4v-14.3h1.4v4.1c1.1-2.5,3.6-4.4,6.5-4.3v1.5
					H-188L-188,1199z"/>
				<path id="XMLID_144_" class="st2" d="M-177.2,1199c-3.4,0-6.3,2.5-6.3,7.1v5.9h-1.4v-14.3h1.4v4.1c1.1-2.5,3.6-4.4,6.5-4.3v1.5
					H-177.2L-177.2,1199z"/>
				<path id="XMLID_141_" class="st2" d="M-164.9,1212v-2.4c-1,1.4-2.8,2.7-5.6,2.7c-2.7,0-5.7-1.5-5.7-4.5v-0.1
					c0-3,2.6-4.6,6.4-4.6c2,0,3.4,0.3,4.8,0.6v-0.6c0-2.9-1.8-4.4-4.8-4.4c-1.8,0-3.2,0.5-4.6,1.1l-0.5-1.2c1.6-0.7,3.2-1.2,5.2-1.2
					c3.8,0,6.1,1.9,6.1,5.6v8.9L-164.9,1212L-164.9,1212z M-164.9,1205c-1.2-0.3-2.9-0.6-5-0.6c-3.1,0-4.8,1.3-4.8,3.3v0.1
					c0,2.1,2,3.3,4.2,3.3c3,0,5.5-1.8,5.5-4.4L-164.9,1205L-164.9,1205z"/>
				<path id="XMLID_139_" class="st2" d="M-148.1,1212v-8.5c0-2.9-1.7-4.9-4.6-4.9c-2.9,0-5.1,2.1-5.1,5.1v8.3h-1.4v-14.3h1.4v2.6
					c1-1.7,2.6-3,5.3-3c3.7,0,5.9,2.5,5.9,5.9v8.7L-148.1,1212L-148.1,1212L-148.1,1212z"/>
				<path id="XMLID_136_" class="st2" d="M-132.3,1212v-2.4c-1,1.4-2.8,2.7-5.6,2.7c-2.7,0-5.7-1.5-5.7-4.5v-0.1
					c0-3,2.6-4.6,6.4-4.6c2,0,3.4,0.3,4.8,0.6v-0.6c0-2.9-1.8-4.4-4.8-4.4c-1.8,0-3.2,0.5-4.6,1.1l-0.5-1.2c1.6-0.7,3.2-1.2,5.2-1.2
					c3.8,0,6.1,1.9,6.1,5.6v8.9L-132.3,1212L-132.3,1212L-132.3,1212z M-132.2,1205c-1.2-0.3-2.9-0.6-5-0.6c-3.1,0-4.8,1.3-4.8,3.3
					v0.1c0,2.1,2,3.3,4.2,3.3c3,0,5.5-1.8,5.5-4.4L-132.2,1205L-132.2,1205z"/>
			</g>
		</g>
		<path id="XMLID_3713_" class="st3" d="M-243,1191.3c-1-0.8-2.1-1.7-3.1-2.5c-2.5-2-5.2-3.5-8.6-3.6c-0.3,0-0.7-0.2-0.9-0.4
			c-1.1-1-2.1-2-3.2-3c-1.4-1.2-2.9-1.7-4.8-1.4c-2.4,0.3-4,1.6-5,3.7c-1.9-1.1-3.7-1.1-5.6,0c-0.1-0.2-0.2-0.4-0.3-0.6
			c-2-3.5-6.7-4.3-9.7-1.5c-1,0.9-1.9,1.8-2.9,2.6c-0.4,0.3-1,0.6-1.5,0.6c-2.2,0.1-4.3,0.8-6.1,2.1c-1.8,1.4-3.7,2.7-5.4,4.1
			c-4.6,2.8-7.6,7.8-7.6,13.4c0,8.8,7.3,15.9,16.3,15.9c8.1,0,14.7-5.7,16-13.2c1.2,0.6,2.5,0.9,4.1,0.9c1.5,0,2.8-0.4,4-1
			c1.3,7.5,8,13.3,16,13.3c9,0,16.3-7.1,16.3-15.9C-235.1,1199.1-238.3,1194.1-243,1191.3z"/>
		<ellipse id="XMLID_122_" class="st4" cx="-291.5" cy="1204.9" rx="16.3" ry="15.9"/>
		<ellipse id="XMLID_121_" class="st4" cx="-251.4" cy="1204.9" rx="16.3" ry="15.9"/>
		<ellipse id="XMLID_3697_" class="st5" cx="-291.5" cy="1204.9" rx="10.8" ry="10.5"/>
		<ellipse id="XMLID_3696_" class="st5" cx="-251.4" cy="1204.9" rx="10.8" ry="10.5"/>
		<path id="XMLID_3695_" class="st3" d="M-271.6,1192c4.6-0.1,8.6,3.4,8.5,8c0,4.6-3.3,8.3-8.4,8.4c-4.9,0.1-8.3-3.6-8.4-7.8
			C-280.1,1195.5-276.1,1191.8-271.6,1192z"/>
		<path id="XMLID_3694_" class="st5" d="M-271.5,1196c2.4-0.1,4.4,1.8,4.4,4.1c0,2.4-1.7,4.3-4.3,4.4c-2.5,0-4.3-1.9-4.4-4
			C-275.9,1197.8-273.8,1195.9-271.5,1196z"/>
		<path id="XMLID_34_" class="st3" d="M-288.4,1209.7c-5.2,0-9.4-4.1-9.4-9.2c0-0.1,0-0.3,0-0.4c-1,1.3-1.6,2.9-1.6,4.7
			c0,4.3,3.6,7.8,8,7.8c2.8,0,5.3-1.5,6.8-3.6C-285.9,1209.5-287.1,1209.7-288.4,1209.7z"/>
		<path id="XMLID_33_" class="st3" d="M-248.3,1209.7c-5.2,0-9.4-4.1-9.4-9.2c0-0.1,0-0.3,0-0.4c-1,1.3-1.6,2.9-1.6,4.7
			c0,4.3,3.6,7.8,8,7.8c2.8,0,5.3-1.5,6.8-3.6C-245.8,1209.5-247,1209.7-248.3,1209.7z"/>
	</g>
</g>
<g id="Capa_3" class="st0">
	<rect x="-432" y="1179.2" class="st6" width="302" height="44"/>
</g>
<g>
	<g>
		<polygon class="st7" points="-49.5,397.2 -43.5,397.2 -38.9,404.1 -45,404.1 		"/>
		<polygon class="st8" points="-49.5,411 -43.5,411 -38.9,404.1 -45,404.1 		"/>
		<polygon class="st7" points="-40.2,397.2 -34.1,397.2 -29.6,404.1 -35.6,404.1 		"/>
		<polygon class="st8" points="-40.2,411 -34.1,411 -29.6,404.1 -35.6,404.1 		"/>
	</g>
	<g>
		<path class="st9" d="M-36.3,446l-4.7-7h-3.8v7h-4.8v-21.7h9.9c5.1,0,8.2,2.7,8.2,7.2v0.1c0,3.5-1.9,5.7-4.7,6.7l5.3,7.8L-36.3,446
			L-36.3,446z M-36.2,431.7c0-2-1.4-3.1-3.8-3.1h-4.7v6.2h4.8C-37.6,434.8-36.2,433.5-36.2,431.7L-36.2,431.7z"/>
		<path class="st9" d="M-26.8,446v-21.7h4.8V446H-26.8z M-26.4,422.5l3.5-5.5l4.1,1.8l-4,3.7H-26.4z"/>
		<path class="st9" d="M-6.1,446.3c-6.7,0-11.5-5-11.5-11.2V435c0-6.2,4.9-11.2,11.6-11.2c6.7,0,11.5,5,11.5,11.2v0.1
			C5.5,441.3,0.6,446.3-6.1,446.3z M0.5,435.1c0-3.7-2.7-6.8-6.6-6.8s-6.5,3-6.5,6.8v0.1c0,3.7,2.7,6.8,6.6,6.8
			C-2.2,441.9,0.5,438.9,0.5,435.1L0.5,435.1z"/>
		<path class="st9" d="M29.3,446.3c-6.4,0-11.1-4.9-11.1-11.2V435c0-6.2,4.7-11.2,11.3-11.2c4.1,0,6.6,1.4,8.6,3.4l-3,3.5
			c-1.7-1.5-3.4-2.5-5.6-2.5c-3.7,0-6.3,3-6.3,6.8v0.1c0,3.7,2.6,6.8,6.3,6.8c2.5,0,4-1,5.7-2.5l3,3.1
			C35.9,444.8,33.5,446.3,29.3,446.3z"/>
		<path class="st9" d="M51.1,446.3c-5.8,0-9.4-3.3-9.4-9.7v-12.4h4.8v12.3c0,3.5,1.8,5.4,4.7,5.4c2.9,0,4.7-1.8,4.7-5.2v-12.4h4.8
			v12.3C60.6,443.1,56.9,446.3,51.1,446.3z"/>
		<path class="st9" d="M80.9,446l-2-4.9h-9.2l-2,4.9h-4.9l9.3-21.9h4.4l9.3,21.9H80.9z M74.3,429.8l-2.9,7h5.8L74.3,429.8z"/>
		<path class="st9" d="M102.4,446l-4.7-7H94v7h-4.8v-21.7h9.9c5.1,0,8.2,2.7,8.2,7.2v0.1c0,3.5-1.9,5.7-4.7,6.7l5.3,7.8L102.4,446
			L102.4,446z M102.5,431.7c0-2-1.4-3.1-3.8-3.1H94v6.2h4.8C101.2,434.8,102.5,433.5,102.5,431.7L102.5,431.7z"/>
		<path class="st9" d="M121.5,428.6v17.3h-4.8v-17.3h-6.6v-4.4h18v4.4H121.5z"/>
		<path class="st9" d="M141.4,446.3c-6.7,0-11.5-5-11.5-11.2V435c0-6.2,4.9-11.2,11.6-11.2s11.5,5,11.5,11.2v0.1
			C153,441.3,148.1,446.3,141.4,446.3z M148,435.1c0-3.7-2.7-6.8-6.6-6.8c-3.9,0-6.5,3-6.5,6.8v0.1c0,3.7,2.7,6.8,6.6,6.8
			C145.3,441.9,148,438.9,148,435.1L148,435.1z"/>
	</g>
	<g>
		<path class="st9" d="M-17.7,411.9c-4.7,0-7.8-3.4-7.8-7.8c0-4.2,3.2-7.8,7.8-7.8c2.6,0,4.2,0.7,5.8,2l-1.7,2
			c-1.2-1-2.3-1.6-4.2-1.6c-2.8,0-4.9,2.4-4.9,5.3c0,3.1,2,5.4,5.1,5.4c1.4,0,2.7-0.5,3.6-1.1v-2.8h-3.8v-2.3h6.4v6.3
			C-12.9,410.8-15.1,411.9-17.7,411.9z"/>
		<path class="st9" d="M1.2,411.9c-4.6,0-7.8-3.5-7.8-7.8s3.3-7.8,7.9-7.8c4.6,0,7.8,3.5,7.8,7.8C9.1,408.3,5.8,411.9,1.2,411.9z
			 M1.2,398.8c-3,0-5.1,2.4-5.1,5.3c0,2.9,2.1,5.4,5.1,5.4s5.1-2.4,5.1-5.3S4.2,398.8,1.2,398.8z"/>
		<path class="st9" d="M25.9,400.4c0,1.8-1,2.8-2.1,3.4c1.8,0.6,3,1.6,3,3.7c0,2.7-2.2,4.1-5.6,4.1h-7v-15h6.7
			C24,396.6,25.9,398.1,25.9,400.4z M23.3,400.9c0-1.2-0.9-1.9-2.6-1.9h-3.8v4h3.6C22.2,402.9,23.3,402.3,23.3,400.9z M24.1,407.2
			c0-1.3-1-2-3.1-2h-4.2v4.1h4.4C23.1,409.3,24.1,408.6,24.1,407.2z"/>
		<path class="st9" d="M34.6,396.6v15H32v-15H34.6z"/>
		<path class="st9" d="M51.8,399h-8.5v3.9h7.5v2.4h-7.5v4h8.6v2.4H40.6v-15h11.1v2.3H51.8z"/>
		<path class="st9" d="M66.7,411.6l-3.7-5.2h-3.3v5.2H57v-15h6.7c3.5,0,5.6,1.8,5.6,4.8c0,2.5-1.5,4-3.6,4.6l4.1,5.7L66.7,411.6
			L66.7,411.6z M63.5,399h-3.8v5h3.9c1.9,0,3.1-1,3.1-2.5C66.6,399.9,65.5,399,63.5,399z"/>
		<path class="st9" d="M85,396.6h2.6v15h-2.2l-8.3-10.7v10.7h-2.6v-15h2.4L85,407V396.6z"/>
		<path class="st9" d="M100.7,411.9c-4.6,0-7.8-3.5-7.8-7.8s3.3-7.8,7.9-7.8c4.6,0,7.8,3.5,7.8,7.8
			C108.6,408.3,105.3,411.9,100.7,411.9z M100.7,398.8c-3,0-5.1,2.4-5.1,5.3c0,2.9,2.1,5.4,5.1,5.4s5.1-2.4,5.1-5.3
			S103.7,398.8,100.7,398.8z"/>
		<path class="st9" d="M127.9,411.6h-5.6v-15h5.6c4.7,0,8,3.2,8,7.5C135.8,408.3,132.6,411.6,127.9,411.6z M127.9,399h-3v10.2h3
			c3.2,0,5.2-2.1,5.2-5.1C133.1,401.2,131,399,127.9,399z"/>
		<path class="st9" d="M152.2,399h-8.5v3.9h7.5v2.4h-7.5v4h8.6v2.4h-11.2v-15h11.1C152.2,396.7,152.2,399,152.2,399z"/>
	</g>
	<g>
		<path id="XMLID_114_" class="st8" d="M-107,460.9c-22.1,0-40-17.9-40-40s17.9-40,40-40s40,17.9,40,40
			C-67,442.9-84.9,460.9-107,460.9z M-107,384.6c-20,0-36.2,16.3-36.2,36.2c0,20,16.3,36.2,36.2,36.2c20,0,36.2-16.3,36.2-36.2
			C-70.8,400.9-87,384.6-107,384.6z"/>
		<path id="XMLID_113_" class="st8" d="M-133,450.7c0,0,11-12.5,38.8-5.8c0,0,21.5,4.1,33.6-2.9c0,0-13.5,13.4-40.2,6.3
			C-100.8,448.2-116.1,443.9-133,450.7z"/>
		<path id="XMLID_106_" class="st9" d="M-128.2,420.1v18.7h-1.3h-0.2v2.6h-1.7v3.9h2.5c5.4-3.2,16.4-7.2,34.7-2.7
			c0,0,5.1,1,11.7,1.2v-2.3h-1.7v-2.6h-0.2h-1.3v-18.7h4.1l0.8-2.2l-18.8-10.5v-6.2l-1.1-0.7v-3.7h1.1v-1.7h-1.1v-0.9
			c0-2.6-2.5-5.5-5.9-5.7v-3.1h-0.1h-0.1h-0.2l0,0l0,0h-0.2h-0.1h-0.1v3.1c-3.3,0.2-5.9,3.1-5.9,5.7v0.9h-1.1v1.7h1.1v3.7l-1.1,0.7
			v6.2l-18.8,10.5l0.8,2.2h4.2V420.1z M-96.1,420.1h5.5v18.7h-5.5V420.1z M-104.1,394c2.3,0,2.2,2.2,2.2,2.2v4.4h-4.2v-4.4
			C-106.1,396.2-106.3,394-104.1,394z M-109.9,394c2.2,0,2,2.2,2,2.2v4.4h-4.2v-4.4C-112.1,396.2-112.2,394-109.9,394z
			 M-113.2,420.1h6.2h6.2v18.7h-6.2l0,0l0,0h-6.2V420.1z M-123.4,420.1h5.5v18.7h-5.5V420.1z"/>
	</g>
</g>
</svg>
