<?xml version="1.0" encoding="utf-8"?>
<!-- Generator: Adobe Illustrator 18.0.0, SVG Export Plug-In . SVG Version: 6.00 Build 0)  -->
<!DOCTYPE svg PUBLIC "-//W3C//DTD SVG 1.1//EN" "http://www.w3.org/Graphics/SVG/1.1/DTD/svg11.dtd">
<svg version="1.1" id="Capa_1" xmlns="http://www.w3.org/2000/svg" xmlns:xlink="http://www.w3.org/1999/xlink" x="0px" y="0px"
	 viewBox="0 0 345.4 117.5" enable-background="new 0 0 345.4 117.5" xml:space="preserve">
<g>
	<g>
		<g>
			<path fill="#183246" d="M132.4,17.2h12c2.8,0,5.3,0.4,7.5,1.1c2.2,0.8,4,1.8,5.5,3.2c1.5,1.4,2.6,3,3.4,4.9
				c0.8,1.9,1.2,4,1.2,6.2v0.1c0,2.3-0.4,4.3-1.2,6.3c-0.8,1.9-2,3.6-3.5,5c-1.5,1.4-3.4,2.5-5.6,3.3c-2.2,0.8-4.7,1.2-7.5,1.2
				h-11.9V17.2z M144.6,40.7c2.6,0,4.7-0.7,6.3-2.1c1.6-1.4,2.4-3.3,2.4-5.8v-0.1c0-2.5-0.8-4.4-2.4-5.8s-3.7-2.1-6.3-2.1h-3.5v15.9
				H144.6z"/>
			<path fill="#183246" d="M190.3,16.9h8.3L212,48.4h-9.3l-2.3-5.6h-12l-2.2,5.6H177L190.3,16.9z M197.9,36.1l-3.5-8.9l-3.5,8.9
				H197.9z"/>
			<path fill="#183246" d="M235.6,24.7h-9.4v-7.6h27.4v7.6h-9.4v23.6h-8.6V24.7z"/>
			<path fill="#183246" d="M286.1,49c-2.4,0-4.6-0.4-6.7-1.3c-2.1-0.8-3.8-2-5.3-3.5c-1.5-1.5-2.7-3.2-3.5-5.1
				c-0.8-2-1.3-4.1-1.3-6.3v-0.1c0-2.2,0.4-4.3,1.3-6.3c0.8-2,2-3.7,3.5-5.2c1.5-1.5,3.3-2.6,5.4-3.5c2.1-0.8,4.3-1.3,6.7-1.3
				c2.4,0,4.6,0.4,6.7,1.3c2.1,0.8,3.8,2,5.3,3.5c1.5,1.5,2.7,3.2,3.5,5.1c0.8,2,1.3,4.1,1.3,6.3v0.1c0,2.2-0.4,4.3-1.3,6.3
				c-0.8,2-2,3.7-3.5,5.2c-1.5,1.5-3.3,2.6-5.4,3.5C290.8,48.6,288.6,49,286.1,49z M286.2,41.2c1.2,0,2.3-0.2,3.3-0.7
				c1-0.4,1.8-1,2.5-1.8c0.7-0.8,1.2-1.6,1.6-2.7c0.4-1,0.6-2.1,0.6-3.2v-0.1c0-1.1-0.2-2.2-0.6-3.2c-0.4-1-0.9-1.9-1.7-2.7
				c-0.7-0.8-1.6-1.4-2.5-1.9c-1-0.5-2.1-0.7-3.3-0.7c-1.2,0-2.3,0.2-3.2,0.7c-1,0.4-1.8,1-2.5,1.8c-0.7,0.8-1.2,1.6-1.6,2.7
				c-0.4,1-0.6,2.1-0.6,3.2v0.1c0,1.1,0.2,2.2,0.6,3.2c0.4,1,0.9,1.9,1.6,2.7c0.7,0.8,1.5,1.4,2.5,1.8C283.9,41,285,41.2,286.2,41.2
				z"/>
			<path fill="#183246" d="M332.8,48.9c-2.8,0-5.4-0.4-8-1.3c-2.5-0.9-4.7-2.2-6.7-3.9l4.8-5.8c3.1,2.5,6.5,3.7,10.1,3.7
				c1.2,0,2-0.2,2.7-0.6c0.6-0.4,0.9-0.9,0.9-1.6v-0.1c0-0.3-0.1-0.6-0.2-0.9c-0.1-0.3-0.4-0.5-0.8-0.7c-0.4-0.2-0.9-0.5-1.6-0.7
				c-0.7-0.2-1.5-0.5-2.6-0.7c-1.7-0.4-3.2-0.8-4.6-1.3c-1.4-0.5-2.7-1.1-3.7-1.8c-1.1-0.7-1.9-1.6-2.5-2.7c-0.6-1.1-0.9-2.4-0.9-4
				v-0.1c0-1.5,0.3-2.8,0.8-4c0.6-1.2,1.4-2.3,2.4-3.2c1.1-0.9,2.3-1.6,3.8-2.1c1.5-0.5,3.2-0.7,5-0.7c2.7,0,5.1,0.4,7.2,1.1
				c2.1,0.7,4,1.7,5.7,3.1l-4.3,6.1c-1.4-1-2.9-1.8-4.4-2.3c-1.5-0.5-3-0.8-4.3-0.8c-1,0-1.8,0.2-2.3,0.6c-0.5,0.4-0.8,0.9-0.8,1.4
				v0.1c0,0.4,0.1,0.7,0.2,0.9c0.2,0.3,0.4,0.5,0.8,0.7c0.4,0.2,1,0.4,1.7,0.7c0.7,0.2,1.6,0.5,2.7,0.7c1.8,0.4,3.4,0.8,4.8,1.4
				c1.4,0.5,2.7,1.1,3.7,1.9c1,0.7,1.8,1.6,2.3,2.7c0.5,1.1,0.8,2.3,0.8,3.8v0.1c0,1.6-0.3,3-0.9,4.3c-0.6,1.2-1.5,2.3-2.6,3.2
				c-1.1,0.9-2.4,1.5-4,2S334.7,48.9,332.8,48.9z"/>
			<path fill="#183246" d="M140.5,63.4h4.8L155.3,87h-5.4l-2.1-5.3h-9.9l-2.1,5.3h-5.3L140.5,63.4z M145.9,77.2l-3.1-7.6l-3.1,7.6
				H145.9z"/>
			<path fill="#183246" d="M164,63.6h10.9c2.7,0,4.7,0.7,6.1,2.1c1.1,1.1,1.6,2.4,1.6,4v0.1c0,0.7-0.1,1.3-0.2,1.8
				c-0.2,0.5-0.4,1-0.7,1.4c-0.3,0.4-0.6,0.8-1,1.1c-0.4,0.3-0.8,0.6-1.2,0.8c1.4,0.5,2.4,1.2,3.2,2.1c0.8,0.9,1.2,2.1,1.2,3.7v0.1
				c0,1.1-0.2,2-0.6,2.8c-0.4,0.8-1,1.5-1.8,2c-0.8,0.5-1.7,0.9-2.8,1.2s-2.3,0.4-3.6,0.4H164V63.6z M173.8,73c1.1,0,2-0.2,2.7-0.6
				c0.7-0.4,1-1,1-1.9v-0.1c0-0.8-0.3-1.4-0.9-1.8c-0.6-0.4-1.4-0.6-2.5-0.6H169v5H173.8z M175.1,82.5c1.1,0,2-0.2,2.7-0.6
				c0.6-0.4,1-1.1,1-1.9v-0.1c0-0.8-0.3-1.4-0.9-1.9c-0.6-0.5-1.6-0.7-2.9-0.7h-6v5.2H175.1z"/>
			<path fill="#183246" d="M193.5,63.6h5.2V87h-5.2V63.6z"/>
			<path fill="#183246" d="M209.6,63.6h17.7v4.6h-12.6v4.8h11.1v4.6h-11.1v4.9h12.7V87h-17.8V63.6z"/>
			<path fill="#183246" d="M237.1,63.6h10.7c3,0,5.2,0.8,6.8,2.4c1.3,1.3,2,3.1,2,5.4v0.1c0,1.9-0.5,3.4-1.4,4.6
				c-0.9,1.2-2.1,2.1-3.6,2.6l5.7,8.4h-6l-5-7.5h-0.1h-4V87h-5.2V63.6z M247.5,75c1.3,0,2.2-0.3,2.9-0.9s1-1.4,1-2.4v-0.1
				c0-1.1-0.4-2-1.1-2.5c-0.7-0.6-1.7-0.8-3-0.8h-5.1V75H247.5z"/>
			<path fill="#183246" d="M271.8,68.3h-7.1v-4.8h19.4v4.8H277V87h-5.2V68.3z"/>
			<path fill="#183246" d="M304.5,87.4c-1.8,0-3.5-0.3-5-1c-1.5-0.6-2.8-1.5-3.9-2.6c-1.1-1.1-2-2.4-2.6-3.8s-0.9-3-0.9-4.7v-0.1
				c0-1.7,0.3-3.2,0.9-4.7c0.6-1.5,1.5-2.7,2.6-3.9c1.1-1.1,2.4-2,4-2.6c1.5-0.6,3.2-1,5-1c1.8,0,3.5,0.3,5,1
				c1.5,0.6,2.8,1.5,3.9,2.6c1.1,1.1,2,2.4,2.6,3.8s0.9,3,0.9,4.7v0.1c0,1.7-0.3,3.2-0.9,4.7c-0.6,1.5-1.5,2.7-2.6,3.9
				c-1.1,1.1-2.4,2-4,2.6C308,87.1,306.3,87.4,304.5,87.4z M304.6,82.7c1,0,2-0.2,2.8-0.6c0.9-0.4,1.6-0.9,2.2-1.6
				c0.6-0.7,1.1-1.4,1.4-2.3c0.3-0.9,0.5-1.8,0.5-2.8v-0.1c0-1-0.2-2-0.5-2.8c-0.3-0.9-0.8-1.7-1.5-2.3c-0.6-0.7-1.4-1.2-2.3-1.6
				c-0.9-0.4-1.8-0.6-2.8-0.6c-1.1,0-2,0.2-2.9,0.6c-0.9,0.4-1.6,0.9-2.2,1.6c-0.6,0.7-1.1,1.4-1.4,2.3c-0.3,0.9-0.5,1.8-0.5,2.8
				v0.1c0,1,0.2,2,0.5,2.8c0.3,0.9,0.8,1.7,1.5,2.3c0.6,0.7,1.4,1.2,2.2,1.6C302.6,82.5,303.5,82.7,304.6,82.7z"/>
			<path fill="#183246" d="M335,87.3c-1.8,0-3.5-0.3-5.3-0.9c-1.7-0.6-3.3-1.6-4.7-2.8l3-3.7c1.1,0.9,2.2,1.6,3.3,2.1
				c1.1,0.5,2.4,0.8,3.7,0.8c1.1,0,1.9-0.2,2.5-0.6c0.6-0.4,0.9-0.9,0.9-1.6v-0.1c0-0.3-0.1-0.6-0.2-0.9c-0.1-0.3-0.4-0.5-0.7-0.7
				c-0.3-0.2-0.8-0.4-1.4-0.7s-1.4-0.5-2.4-0.7c-1.2-0.3-2.3-0.6-3.2-1c-1-0.4-1.8-0.8-2.5-1.3c-0.7-0.5-1.2-1.2-1.6-2
				c-0.4-0.8-0.6-1.8-0.6-2.9v-0.1c0-1.1,0.2-2,0.6-2.9c0.4-0.9,1-1.6,1.7-2.2c0.7-0.6,1.6-1.1,2.6-1.4c1-0.3,2.1-0.5,3.3-0.5
				c1.7,0,3.3,0.3,4.7,0.8c1.4,0.5,2.8,1.3,4,2.2l-2.7,3.9c-1.1-0.7-2.1-1.3-3.1-1.7c-1-0.4-2-0.6-3-0.6s-1.8,0.2-2.3,0.6
				c-0.5,0.4-0.8,0.9-0.8,1.5v0.1c0,0.4,0.1,0.7,0.2,1c0.1,0.3,0.4,0.5,0.8,0.8c0.4,0.2,0.9,0.4,1.6,0.6c0.7,0.2,1.5,0.4,2.5,0.7
				c1.2,0.3,2.2,0.7,3.2,1.1c0.9,0.4,1.7,0.9,2.4,1.4c0.6,0.5,1.1,1.2,1.4,1.9c0.3,0.7,0.5,1.6,0.5,2.6v0.1c0,1.2-0.2,2.2-0.6,3.1
				c-0.4,0.9-1,1.7-1.8,2.3c-0.8,0.6-1.7,1.1-2.7,1.4C337.5,87.2,336.3,87.3,335,87.3z"/>
		</g>
	</g>
	<g>
		<polygon opacity="0.7" fill-rule="evenodd" clip-rule="evenodd" fill="#8BB91A" points="132.8,96.4 142,96.4 149,106.9 
			139.8,106.9 		"/>
		<polygon fill-rule="evenodd" clip-rule="evenodd" fill="#8BB91A" points="132.8,117.5 142,117.5 149,106.9 139.8,106.9 		"/>
		<polygon opacity="0.7" fill-rule="evenodd" clip-rule="evenodd" fill="#00A4B8" points="147.2,96.4 156.4,96.4 163.4,106.9 
			154.2,106.9 		"/>
		<polygon fill-rule="evenodd" clip-rule="evenodd" fill="#00A4B8" points="147.2,117.5 156.4,117.5 163.4,106.9 154.2,106.9 		"/>
	</g>
	<g>
		<path fill="#00A4B8" d="M183.9,116.3l-4-6h-3.3v6h-4.1V97.4h8.6c4.4,0,7.1,2.3,7.1,6.2v0.1c0,3-1.6,5-4,5.8l4.6,6.7H183.9z
			 M184,103.9c0-1.8-1.2-2.7-3.3-2.7h-4.1v5.4h4.2C182.8,106.6,184,105.5,184,103.9L184,103.9z"/>
		<path fill="#00A4B8" d="M191.5,116.3V97.4h4.1v18.8H191.5z M191.8,96l3-4.8l3.5,1.5L195,96H191.8z"/>
		<path fill="#00A4B8" d="M208.9,116.6c-5.8,0-10-4.3-10-9.7v-0.1c0-5.4,4.2-9.7,10-9.7c5.8,0,10,4.3,10,9.7v0.1
			C218.9,112.2,214.7,116.6,208.9,116.6z M214.6,106.9c0-3.2-2.4-5.9-5.7-5.9c-3.3,0-5.7,2.6-5.7,5.9v0.1c0,3.2,2.4,5.9,5.7,5.9
			C212.3,112.8,214.6,110.1,214.6,106.9L214.6,106.9z"/>
		<path fill="#00A4B8" d="M238.3,116.6c-5.5,0-9.7-4.3-9.7-9.7v-0.1c0-5.4,4-9.7,9.8-9.7c3.6,0,5.7,1.2,7.4,2.9l-2.6,3
			c-1.5-1.3-2.9-2.1-4.8-2.1c-3.2,0-5.5,2.6-5.5,5.9v0.1c0,3.2,2.2,5.9,5.5,5.9c2.2,0,3.5-0.9,5-2.2l2.6,2.7
			C244.1,115.3,241.9,116.6,238.3,116.6z"/>
		<path fill="#00A4B8" d="M256.6,116.6c-5.1,0-8.2-2.8-8.2-8.4V97.4h4.1v10.7c0,3.1,1.5,4.7,4.1,4.7c2.5,0,4.1-1.5,4.1-4.5V97.4h4.1
			v10.6C264.8,113.8,261.6,116.6,256.6,116.6z"/>
		<path fill="#00A4B8" d="M281.8,116.3l-1.7-4.2h-8l-1.7,4.2h-4.2l8.1-19h3.8l8.1,19H281.8z M276.1,102.3l-2.5,6.1h5L276.1,102.3z"
			/>
		<path fill="#00A4B8" d="M299.9,116.3l-4-6h-3.3v6h-4.1V97.4h8.6c4.4,0,7.1,2.3,7.1,6.2v0.1c0,3-1.6,5-4,5.8l4.6,6.7H299.9z
			 M300,103.9c0-1.8-1.2-2.7-3.3-2.7h-4.1v5.4h4.2C298.8,106.6,300,105.5,300,103.9L300,103.9z"/>
		<path fill="#00A4B8" d="M315.8,101.3v15h-4.1v-15H306v-3.8h15.6v3.8H315.8z"/>
		<path fill="#00A4B8" d="M332.5,116.6c-5.8,0-10-4.3-10-9.7v-0.1c0-5.4,4.2-9.7,10-9.7c5.8,0,10,4.3,10,9.7v0.1
			C342.5,112.2,338.3,116.6,332.5,116.6z M338.2,106.9c0-3.2-2.4-5.9-5.7-5.9s-5.7,2.6-5.7,5.9v0.1c0,3.2,2.4,5.9,5.7,5.9
			C335.9,112.8,338.2,110.1,338.2,106.9L338.2,106.9z"/>
	</g>
</g>
<g>
	<path fill-rule="evenodd" clip-rule="evenodd" fill="#183246" d="M40.5,17.1C17.4,21.7,0,42.1,0,66.6c0,27.9,22.6,50.5,50.5,50.5
		c27.9,0,50.5-22.6,50.5-50.5h-9.3c0,22.7-18.4,41.2-41.2,41.2c-22.7,0-41.2-18.4-41.2-41.2c0-19.3,13.3-35.5,31.2-40V17.1z"/>
	<polygon fill-rule="evenodd" clip-rule="evenodd" fill="#00A4B8" points="50.9,16.1 12.8,69.9 12.8,81.1 24,81.1 24,69.9 
		61.8,16.1 	"/>
	<polygon fill-rule="evenodd" clip-rule="evenodd" fill="#8BB91A" points="73.2,6.1 28.4,69.9 28.4,100.2 39.4,100.2 39.4,69.9 
		84,6.1 	"/>
	<polygon fill-rule="evenodd" clip-rule="evenodd" fill="#8BB91A" points="100.1,11.9 59.2,69.9 59.2,100.7 70.4,100.7 70.4,69.9 
		111,11.9 	"/>
	<polygon fill-rule="evenodd" clip-rule="evenodd" fill="#183246" points="103.6,0 92.7,0 43.7,69.9 43.7,106.2 54.9,106.2 
		54.9,69.9 54.9,69.9 	"/>
	<polygon fill-rule="evenodd" clip-rule="evenodd" fill="#00A4B8" points="105.1,26.9 74.7,69.9 74.7,86.6 86,86.6 86,69.9 
		116.3,26.9 	"/>
</g>
</svg>
